<svg width="32" height="32" fill="none" xmlns="http://www.w3.org/2000/svg"><path d="M16 1.667a1 1 0 0 1 1 1V4a1 1 0 1 1-2 0V2.667a1 1 0 0 1 1-1Z" fill="#fff"/><path fill-rule="evenodd" clip-rule="evenodd" d="M8.333 16a7.667 7.667 0 1 1 15.334 0 7.667 7.667 0 0 1-15.334 0ZM16 10.333a5.667 5.667 0 1 0 0 11.334 5.667 5.667 0 0 0 0-11.334Z" fill="#fff"/><path d="M7.279 5.865a1 1 0 0 0-1.414 1.414l.943.943a1 1 0 0 0 1.414-1.414l-.943-.943ZM30.333 16a1 1 0 0 1-1 1H28a1 1 0 1 1 0-2h1.333a1 1 0 0 1 1 1ZM26.135 7.279a1 1 0 0 0-1.414-1.414l-.943.943a1 1 0 0 0 1.414 1.414l.943-.943ZM16 27a1 1 0 0 1 1 1v1.333a1 1 0 1 1-2 0V28a1 1 0 0 1 1-1ZM25.192 23.778a1 1 0 1 0-1.414 1.414l.943.943a1 1 0 0 0 1.414-1.414l-.943-.943ZM5 16a1 1 0 0 1-1 1H2.667a1 1 0 1 1 0-2H4a1 1 0 0 1 1 1ZM8.222 25.192a1 1 0 0 0-1.414-1.414l-.943.943a1 1 0 1 0 1.414 1.414l.943-.943Z" fill="#fff"/></svg>