<svg width="24" height="24" fill="none" xmlns="http://www.w3.org/2000/svg"><path fill-rule="evenodd" clip-rule="evenodd" d="M15.021 3.343c.509-.087 1.078-.116 1.614-.025a4.85 4.85 0 0 1 2.54 1.273c.456.01.905-.08 1.302-.208a5.366 5.366 0 0 0 1.098-.501l.009-.006a.75.75 0 0 1 1.042 1.037c-.207.315-.496.877-.819 1.507l-.155.301c-.185.36-.375.724-.552 1.036-.111.196-.23.395-.35.567v.274A12.34 12.34 0 0 1 8.287 21.03a12.32 12.32 0 0 1-6.694-1.97.75.75 0 0 1 .5-1.375 7.47 7.47 0 0 0 4.033-.642 4.857 4.857 0 0 1-2.61-2.922.75.75 0 0 1 .156-.733A4.848 4.848 0 0 1 2.05 9.794V9.741a.75.75 0 0 1 .553-.724A4.84 4.84 0 0 1 2.09 6.84c0-.857.223-1.699.65-2.442a.75.75 0 0 1 1.232-.1 10.89 10.89 0 0 0 7.006 3.93 4.848 4.848 0 0 1 2.562-4.406c.402-.214.934-.385 1.482-.479ZM3.743 10.891a3.35 3.35 0 0 0 2.503 2.164.75.75 0 0 1 .072 1.453c-.272.083-.551.14-.834.173a3.358 3.358 0 0 0 2.59 1.3.75.75 0 0 1 .45 1.339 8.97 8.97 0 0 1-3.548 1.695 10.82 10.82 0 0 0 3.313.516h.009A10.84 10.84 0 0 0 19.25 8.606v-.535a.75.75 0 0 1 .186-.495c.07-.079.19-.261.36-.56.16-.282.338-.622.523-.981l.033-.066a4.993 4.993 0 0 1-1.593.097.75.75 0 0 1-.47-.237 3.35 3.35 0 0 0-1.904-1.032 3.42 3.42 0 0 0-1.11.025 3.605 3.605 0 0 0-1.028.323 3.35 3.35 0 0 0-1.678 3.74.75.75 0 0 1-.767.925 12.39 12.39 0 0 1-8.149-3.627 3.41 3.41 0 0 0-.063.657v.002a3.34 3.34 0 0 0 1.486 2.785A.75.75 0 0 1 4.64 11a4.798 4.798 0 0 1-.897-.109Z" fill="#fff"/></svg>